<svg version="1.1" viewBox="0.0 0.0 944.8818897637796 944.8818897637796" fill="none" stroke="none" stroke-linecap="square" stroke-miterlimit="10" xmlns:xlink="http://www.w3.org/1999/xlink" xmlns="http://www.w3.org/2000/svg"><clipPath id="p.0"><path d="m0 0l944.8819 0l0 944.8819l-944.8819 0l0 -944.8819z" clip-rule="nonzero"/></clipPath><g clip-path="url(#p.0)"><path fill="#000000" fill-opacity="0.0" d="m0 0l944.8819 0l0 944.8819l-944.8819 0z" fill-rule="evenodd"/><path fill="#434343" d="m0 472.44095l0 0c0 -260.92194 211.51901 -472.44095 472.44095 -472.44095l0 0c125.2991 0 245.46634 49.774887 334.0662 138.37476c88.59985 88.59985 138.37476 208.76706 138.37476 334.0662l0 0c0 260.9219 -211.51904 472.44095 -472.44095 472.44095l0 0c-260.92194 0 -472.44095 -211.51904 -472.44095 -472.44095z" fill-rule="evenodd"/><defs><radialGradient id="p.1" gradientUnits="userSpaceOnUse" gradientTransform="matrix(25.326016489382464 0.0 0.0 25.326016489382464 0.0 0.0)" spreadMethod="pad" cx="18.6543724742481" cy="18.6543724742481" fx="18.6543724742481" fy="18.6543724742481" r="25.326017379760742"><stop offset="0.0" stop-color="#696969"/><stop offset="1.0" stop-color="#1d1d1d"/></radialGradient></defs><path fill="url(#p.1)" d="m18.897638 472.44095l0 0c0 -250.48506 203.05824 -453.5433 453.5433 -453.5433l0 0c120.28714 0 235.64767 47.78389 320.70352 132.83975c85.05591 85.05586 132.83978 200.41638 132.83978 320.70355l0 0c0 250.48508 -203.05823 453.5433 -453.5433 453.5433l0 0c-250.48506 0 -453.5433 -203.05823 -453.5433 -453.5433z" fill-rule="evenodd"/><path stroke="#efefef" stroke-width="12.0" stroke-linejoin="round" stroke-linecap="butt" d="m18.897638 472.44095l0 0c0 -250.48506 203.05824 -453.5433 453.5433 -453.5433l0 0c120.28714 0 235.64767 47.78389 320.70352 132.83975c85.05591 85.05586 132.83978 200.41638 132.83978 320.70355l0 0c0 250.48508 -203.05823 453.5433 -453.5433 453.5433l0 0c-250.48506 0 -453.5433 -203.05823 -453.5433 -453.5433z" fill-rule="evenodd"/><path fill="#f3f3f3" d="m331.87607 412.31873c0 -3.3336182 0.2197876 -6.802368 0.65930176 -10.4062805c4.395294 -31.53418 27.47052 -82.21408 69.22568 -152.03976l62.632782 0l-3.2964783 84.46652c-13.185852 2.2524414 -26.371674 9.009766 -39.557526 20.271973c-8.790558 9.009766 -14.284668 20.271973 -16.4823 33.78662c-0.27471924 1.689331 -0.41207886 3.378662 -0.41207886 5.067993c0 11.825317 6.7302856 23.650635 20.190826 35.475952c10.98822 9.009766 25.272888 14.640869 42.854004 16.89331c21.97641 0 40.65634 -5.6311035 56.039825 -16.89331c10.98822 -11.262207 17.581116 -22.524414 19.778748 -33.78662c0.31396484 -2.2524414 0.47094727 -4.4589233 0.47094727 -6.6194153c0 -12.963043 -5.651062 -24.27121 -16.953247 -33.92453c-10.988159 -11.262207 -24.174011 -18.019531 -39.557495 -20.271973l-3.2964783 -84.46652l62.632782 0c46.15045 76.58298 69.22565 130.64157 69.22565 162.17575c0 11.262207 -3.2964478 21.398193 -9.889343 30.407959c-4.3953247 4.504883 -16.48236 12.388397 -36.26111 23.650604c-17.581116 9.009766 -30.766968 19.145752 -39.557495 30.407959c-13.185852 13.514648 -19.778778 30.407959 -19.778778 50.67993c0 36.039062 21.97641 64.19458 65.92923 84.46655l0 104.738464c0 24.776855 -7.6917725 45.04883 -23.075256 60.815918c-19.778748 15.76709 -42.853973 24.776855 -69.22568 27.029297c-37.359894 2.2524414 -68.12686 -6.757324 -92.3009 -27.029297c-15.383484 -15.76709 -23.075226 -36.039062 -23.075226 -60.815918l0 -104.738464c43.95282 -20.271973 65.92923 -48.42749 65.92923 -84.46655c0 -24.776855 -6.592926 -42.796387 -19.778778 -54.058594c-4.395294 -4.504883 -18.679932 -13.514648 -42.854004 -27.029297c-15.383484 -9.009766 -25.272858 -15.767059 -29.668121 -20.271942c-7.0324707 -9.009766 -10.548706 -20.181885 -10.548706 -33.516327zm-29.479736 -0.063446045c0 20.134064 5.651062 36.958435 16.953217 50.473053c6.5928955 9.009766 21.97638 20.271973 46.15045 33.78662c15.383484 9.009766 25.272858 15.76709 29.668121 20.271973c7.0324707 7.2078247 10.548706 15.136414 10.548706 23.785767c0 2.1623535 -0.2197876 4.369751 -0.65930176 6.6221924c0 22.524414 -16.4823 42.796387 -49.44693 60.815918l-9.889374 3.378662l0 125.01044c0 33.78662 13.185852 63.06836 39.557526 87.845215c28.569336 22.524414 62.63275 32.6604 102.19031 30.407959c32.9646 -2.2524414 60.43512 -14.640869 82.4115 -37.165283c19.778748 -20.271973 29.668152 -47.30127 29.668152 -81.08789l0 -125.01044l-6.5928955 -3.378662c-32.9646 -18.019531 -50.545776 -38.291504 -52.74341 -60.815918c2.1976318 -13.514648 6.5929565 -23.650635 13.185852 -30.407959c6.5929565 -4.504883 17.581116 -12.388428 32.9646 -23.650635c21.97644 -11.262207 35.162292 -20.271973 39.557556 -27.029297c11.302124 -11.583954 16.953247 -29.787354 16.953247 -54.6102c0 -4.1371155 -0.15704346 -8.45813 -0.47094727 -12.963013c-4.3952637 -58.563477 -57.13867 -156.54465 -158.23013 -293.94354l-9.889374 -16.89331l-13.185852 16.89331c-101.09146 150.91354 -153.83484 250.02094 -158.23013 297.3222c-0.31393433 3.5395508 -0.47088623 6.987152 -0.47088623 10.342834z" fill-rule="evenodd"/><path stroke="#f3f3f3" stroke-width="3.0" stroke-linejoin="round" stroke-linecap="butt" d="m331.87607 412.31873c0 -3.3336182 0.2197876 -6.802368 0.65930176 -10.4062805c4.395294 -31.53418 27.47052 -82.21408 69.22568 -152.03976l62.632782 0l-3.2964783 84.46652c-13.185852 2.2524414 -26.371674 9.009766 -39.557526 20.271973c-8.790558 9.009766 -14.284668 20.271973 -16.4823 33.78662c-0.27471924 1.689331 -0.41207886 3.378662 -0.41207886 5.067993c0 11.825317 6.7302856 23.650635 20.190826 35.475952c10.98822 9.009766 25.272888 14.640869 42.854004 16.89331c21.97641 0 40.65634 -5.6311035 56.039825 -16.89331c10.98822 -11.262207 17.581116 -22.524414 19.778748 -33.78662c0.31396484 -2.2524414 0.47094727 -4.4589233 0.47094727 -6.6194153c0 -12.963043 -5.651062 -24.27121 -16.953247 -33.92453c-10.988159 -11.262207 -24.174011 -18.019531 -39.557495 -20.271973l-3.2964783 -84.46652l62.632782 0c46.15045 76.58298 69.22565 130.64157 69.22565 162.17575c0 11.262207 -3.2964478 21.398193 -9.889343 30.407959c-4.3953247 4.504883 -16.48236 12.388397 -36.26111 23.650604c-17.581116 9.009766 -30.766968 19.145752 -39.557495 30.407959c-13.185852 13.514648 -19.778778 30.407959 -19.778778 50.67993c0 36.039062 21.97641 64.19458 65.92923 84.46655l0 104.738464c0 24.776855 -7.6917725 45.04883 -23.075256 60.815918c-19.778748 15.76709 -42.853973 24.776855 -69.22568 27.029297c-37.359894 2.2524414 -68.12686 -6.757324 -92.3009 -27.029297c-15.383484 -15.76709 -23.075226 -36.039062 -23.075226 -60.815918l0 -104.738464c43.95282 -20.271973 65.92923 -48.42749 65.92923 -84.46655c0 -24.776855 -6.592926 -42.796387 -19.778778 -54.058594c-4.395294 -4.504883 -18.679932 -13.514648 -42.854004 -27.029297c-15.383484 -9.009766 -25.272858 -15.767059 -29.668121 -20.271942c-7.0324707 -9.009766 -10.548706 -20.181885 -10.548706 -33.516327zm-29.479736 -0.063446045c0 20.134064 5.651062 36.958435 16.953217 50.473053c6.5928955 9.009766 21.97638 20.271973 46.15045 33.78662c15.383484 9.009766 25.272858 15.76709 29.668121 20.271973c7.0324707 7.2078247 10.548706 15.136414 10.548706 23.785767c0 2.1623535 -0.2197876 4.369751 -0.65930176 6.6221924c0 22.524414 -16.4823 42.796387 -49.44693 60.815918l-9.889374 3.378662l0 125.01044c0 33.78662 13.185852 63.06836 39.557526 87.845215c28.569336 22.524414 62.63275 32.6604 102.19031 30.407959c32.9646 -2.2524414 60.43512 -14.640869 82.4115 -37.165283c19.778748 -20.271973 29.668152 -47.30127 29.668152 -81.08789l0 -125.01044l-6.5928955 -3.378662c-32.9646 -18.019531 -50.545776 -38.291504 -52.74341 -60.815918c2.1976318 -13.514648 6.5929565 -23.650635 13.185852 -30.407959c6.5929565 -4.504883 17.581116 -12.388428 32.9646 -23.650635c21.97644 -11.262207 35.162292 -20.271973 39.557556 -27.029297c11.302124 -11.583954 16.953247 -29.787354 16.953247 -54.6102c0 -4.1371155 -0.15704346 -8.45813 -0.47094727 -12.963013c-4.3952637 -58.563477 -57.13867 -156.54465 -158.23013 -293.94354l-9.889374 -16.89331l-13.185852 16.89331c-101.09146 150.91354 -153.83484 250.02094 -158.23013 297.3222c-0.31393433 3.5395508 -0.47088623 6.987152 -0.47088623 10.342834z" fill-rule="evenodd"/></g></svg>